<?xml version="1.0" encoding="utf-8"?>
<!-- Generator: Adobe Illustrator 23.0.2, SVG Export Plug-In . SVG Version: 6.00 Build 0)  -->
<svg version="1.1" id="Layer_1" xmlns="http://www.w3.org/2000/svg" xmlns:xlink="http://www.w3.org/1999/xlink" x="0px" y="0px"
	 viewBox="0 0 247.4 89" style="enable-background:new 0 0 247.4 89;" xml:space="preserve">
<style type="text/css">
	.st0{fill:#752129;}
	.st1{font-family:'SegoeUIBlack-Italic';}
	.st2{font-size:75.783px;}
	.st3{font-family:'MyriadPro-Regular';}
	.st4{font-family:'SegoeUI-Semilight';}
	.st5{font-size:12px;}
	.st6{fill-rule:evenodd;clip-rule:evenodd;}
</style>
<text transform="matrix(1 0 0 1 101.1602 63)"><tspan x="0" y="0" class="st0 st1 st2">404</tspan><tspan x="136.62" y="0" class="st0 st3 st2"> </tspan></text>
<text transform="matrix(1 0 0 1 123.0638 78)" class="st4 st5">Page Not Found!</text>
<path id="path0" class="st6" d="M71.38,9.84C71.3,9.86,71.23,9.93,71.23,10c0,0.07-0.14,0.25-0.32,0.41
	c-0.18,0.16-0.5,0.45-0.72,0.64c-1.42,1.28-2.43,2.1-3.86,3.14c-1.11,0.81-2.37,1.63-2.71,1.78c-0.14,0.06-0.44,0.23-0.65,0.39
	c-0.22,0.15-0.61,0.37-0.87,0.48s-0.64,0.31-0.83,0.44c-0.19,0.13-0.56,0.31-0.83,0.39c-0.26,0.08-0.7,0.28-0.97,0.45
	c-0.27,0.16-0.72,0.36-0.99,0.43c-0.28,0.07-0.84,0.28-1.25,0.47c-0.41,0.18-1.08,0.4-1.49,0.47c-0.41,0.08-1.09,0.26-1.52,0.4
	c-0.63,0.21-1.07,0.29-2.26,0.39c-1.87,0.16-2.5,0.26-3.48,0.52c-0.43,0.12-1.2,0.29-1.71,0.38c-0.56,0.1-1.1,0.26-1.35,0.39
	c-0.23,0.12-0.73,0.32-1.11,0.45c-0.38,0.12-0.83,0.32-0.98,0.44c-0.16,0.12-0.52,0.32-0.81,0.43c-0.59,0.24-0.93,0.45-2.6,1.58
	c-0.54,0.37-1.5,1.14-1.83,1.49c-0.12,0.13-0.53,0.52-0.89,0.87c-0.8,0.77-2.24,2.44-2.56,2.98c-0.13,0.21-0.34,0.54-0.47,0.73
	c-0.62,0.88-1.04,1.57-1.23,1.98c-0.11,0.25-0.32,0.64-0.47,0.88c-0.15,0.23-0.34,0.63-0.42,0.87c-0.08,0.24-0.27,0.68-0.43,0.97
	c-0.16,0.29-0.35,0.76-0.43,1.04c-0.08,0.29-0.26,0.74-0.4,1.01c-0.14,0.27-0.33,0.85-0.43,1.29c-0.1,0.44-0.29,1.08-0.43,1.43
	c-0.25,0.63-0.3,0.86-0.58,2.54c-0.29,1.78-0.92,2.26-2.15,1.64c-0.25-0.12-0.63-0.28-0.85-0.35c-0.82-0.24-2.85-1.93-3.35-2.78
	c-0.13-0.23-0.33-0.54-0.44-0.71c-0.11-0.16-0.27-0.48-0.35-0.71c-0.08-0.23-0.26-0.72-0.4-1.11c-0.39-1.05-0.42-1.24-0.51-3.26
	c-0.09-2.08-0.12-2.23-0.66-3.36c-0.54-1.14-1.13-1.71-2.36-2.32l-0.94-0.46h-1.09h-1.09l-1,0.49c-1.21,0.59-1.73,1.09-2.24,2.13
	c-0.26,0.52-0.4,0.71-0.61,0.81l-0.28,0.13l0,2.36c0,2.25,0.01,2.36,0.16,2.4c0.31,0.08,0.43,0.45,0.75,2.18
	c0.2,1.13,0.38,1.87,0.52,2.13c0.11,0.22,0.31,0.76,0.44,1.19c0.13,0.43,0.31,0.89,0.41,1.02c0.09,0.13,0.3,0.52,0.47,0.87
	c1.26,2.68,5.13,6.65,7.13,7.33c0.1,0.03,0.43,0.21,0.74,0.4c0.31,0.19,0.8,0.4,1.09,0.48c0.29,0.08,0.78,0.28,1.09,0.43
	c0.39,0.2,0.8,0.32,1.3,0.39c0.4,0.06,1.06,0.2,1.46,0.31c0.4,0.12,1.27,0.29,1.92,0.38c1.38,0.19,1.56,0.25,2.05,0.65
	c0.2,0.16,0.5,0.36,0.67,0.45s0.46,0.28,0.65,0.43c0.19,0.15,0.48,0.35,0.65,0.43c0.17,0.08,0.46,0.28,0.65,0.43
	c0.19,0.15,0.48,0.35,0.65,0.43s0.43,0.27,0.59,0.4c0.16,0.14,0.45,0.33,0.65,0.43c0.2,0.1,0.52,0.31,0.7,0.46
	c0.18,0.15,0.5,0.37,0.71,0.49c2.54,1.5,2.68,1.74,2.14,3.86c-0.19,0.77-0.39,1.81-0.45,2.32c-0.05,0.5-0.18,1.3-0.28,1.78
	c-0.57,2.62,0.17,4.92,1.92,5.92c0.22,0.13,0.49,0.3,0.58,0.39c0.1,0.09,0.38,0.26,0.64,0.39c0.26,0.13,0.68,0.39,0.95,0.57
	c0.27,0.19,0.53,0.34,0.59,0.34c0.06,0,0.28,0.13,0.49,0.28s0.66,0.44,1,0.63c1.25,0.71,1.54,0.88,2.23,1.33
	c0.38,0.25,0.74,0.46,0.8,0.46c0.05,0,0.3,0.15,0.55,0.34c0.25,0.19,0.6,0.39,0.78,0.45c0.57,0.18,1.14,0.51,1.19,0.68
	c0.12,0.39,2.76,0.38,2.88-0.01c0.03-0.11,0.32-0.3,0.76-0.51c0.94-0.44,1.65-1.16,2.1-2.1c0.59-1.25,1.39-1.2,1.88,0.13
	c0.28,0.76,1.09,1.54,2.04,1.98c0.46,0.21,0.74,0.39,0.77,0.51c0.08,0.27,0.61,0.29,5.34,0.26l4.21-0.03l0.19-0.23
	c0.1-0.13,0.52-0.39,0.93-0.58c1.03-0.48,1.66-1.14,2.23-2.32l0.42-0.87v-1.04v-1.04l-0.39-0.86c-0.83-1.83-2.33-2.88-4.45-3.13
	c-1.5-0.17-1.67-0.34-1.38-1.29c0.09-0.3,0.23-0.95,0.3-1.44c0.07-0.49,0.23-1.17,0.34-1.52c0.31-0.93,0.38-1.23,0.53-2.24
	c0.07-0.5,0.27-1.32,0.43-1.83c0.16-0.5,0.34-1.25,0.39-1.67c0.09-0.73,0.22-1.25,0.6-2.53c0.1-0.32,0.24-1.02,0.32-1.54
	c0.08-0.52,0.26-1.3,0.4-1.72c0.14-0.42,0.34-1.25,0.43-1.84c0.25-1.59,0.77-3.05,1.36-3.83c0.16-0.22,0.41-0.57,0.55-0.78
	c0.14-0.22,0.47-0.69,0.73-1.04s0.56-0.77,0.65-0.91c0.44-0.66,1.12-1.65,1.4-2.03c0.17-0.23,0.68-0.95,1.13-1.6
	c0.45-0.66,0.97-1.4,1.15-1.65c0.18-0.25,0.54-0.77,0.81-1.16c0.26-0.38,0.66-0.96,0.89-1.27c0.23-0.32,0.62-0.88,0.87-1.25
	c0.25-0.37,0.54-0.78,0.63-0.9c0.17-0.22,0.4-0.55,1.16-1.67c0.88-1.3,0.4-1.2,6.1-1.23c5.28-0.02,4.92,0.02,5.58-0.7
	c0.3-0.32,0.38-0.5,0.5-1.04c0.08-0.36,0.26-0.9,0.41-1.21c0.15-0.3,0.34-0.88,0.43-1.29c0.09-0.41,0.28-0.98,0.42-1.27
	c0.14-0.29,0.35-0.93,0.47-1.41c0.12-0.48,0.32-1.09,0.45-1.34c0.13-0.25,0.3-0.78,0.39-1.17c0.22-1,0.47-1.51,0.79-1.57l0.25-0.05
	V20.3v-0.77l-0.25-0.05c-0.14-0.03-0.36-0.17-0.5-0.32c-0.36-0.38-0.76-0.55-1.57-0.67c-0.39-0.06-1.04-0.22-1.44-0.37
	c-0.4-0.15-1.16-0.34-1.7-0.42c-1.45-0.23-1.85-0.49-2.94-1.82c-0.29-0.35-0.68-0.82-0.87-1.05c-0.19-0.22-0.58-0.71-0.87-1.09
	c-0.29-0.37-0.82-1.03-1.17-1.46c-0.36-0.43-0.82-0.99-1.02-1.25c-0.2-0.25-0.47-0.53-0.59-0.6c-0.12-0.08-0.24-0.23-0.27-0.34
	c-0.03-0.11-0.13-0.22-0.24-0.25C84.38,9.77,71.61,9.78,71.38,9.84 M80.72,13.14c0.5,0.25,0.42,0.7-0.32,1.78
	c-0.26,0.39-0.48,0.76-0.48,0.82c0,0.06-0.14,0.32-0.3,0.57c-0.29,0.43-0.87,1.48-1.33,2.39c-0.65,1.31-1.53,0.79-2.2-1.3
	c-0.11-0.33-0.29-0.76-0.41-0.95c-0.12-0.19-0.31-0.64-0.43-1c-0.12-0.36-0.33-0.82-0.47-1.02c-0.33-0.46-0.36-0.91-0.09-1.19
	C75,12.93,80.15,12.85,80.72,13.14 M71.69,14.76c0.12,0.11,0.29,0.45,0.4,0.8c0.1,0.33,0.3,0.8,0.44,1.04
	c0.14,0.24,0.33,0.71,0.44,1.04c0.11,0.33,0.29,0.76,0.41,0.95c0.12,0.19,0.31,0.63,0.42,0.98c0.11,0.35,0.34,0.88,0.5,1.18
	c0.16,0.3,0.36,0.75,0.43,1s0.25,0.68,0.4,0.96c0.15,0.27,0.34,0.71,0.44,0.98c0.62,1.74,2.25,1.8,3.14,0.13
	c0.15-0.29,0.41-0.71,0.57-0.94c0.16-0.23,0.29-0.47,0.29-0.52s0.14-0.32,0.31-0.58c0.17-0.26,0.43-0.71,0.58-1s0.35-0.64,0.46-0.78
	c0.11-0.14,0.3-0.5,0.43-0.78c0.13-0.29,0.3-0.6,0.39-0.7c0.09-0.1,0.29-0.43,0.44-0.74c0.16-0.31,0.39-0.73,0.53-0.93
	c0.14-0.2,0.29-0.47,0.34-0.6c0.47-1.23,1.48-1.93,1.95-1.36c0.07,0.08,0.45,0.56,0.85,1.05c0.4,0.5,0.89,1.1,1.09,1.35
	s0.53,0.66,0.73,0.93c1.05,1.38,1.43,1.67,2.38,1.83c0.33,0.06,0.9,0.22,1.26,0.35c0.36,0.14,0.97,0.31,1.37,0.38
	c1.53,0.27,1.72,1.16,0.72,3.31c-0.14,0.31-0.34,0.9-0.44,1.32c-0.1,0.42-0.31,1.05-0.47,1.41c-0.16,0.36-0.33,0.87-0.39,1.14
	c-0.21,1.06-0.09,1.03-5.25,1.04c-5.61,0.01-5.24-0.13-7.02,2.56c-0.17,0.25-0.52,0.76-0.78,1.13c-0.82,1.14-1.16,1.64-1.52,2.17
	c-0.19,0.28-0.52,0.75-0.74,1.04c-0.22,0.29-0.71,0.98-1.09,1.54c-0.38,0.56-0.84,1.23-1.02,1.48c-0.18,0.25-0.51,0.72-0.72,1.05
	c-0.22,0.32-0.63,0.91-0.92,1.3c-0.29,0.39-0.72,1-0.96,1.36c-0.24,0.35-0.51,0.75-0.61,0.87c-0.1,0.12-0.29,0.4-0.43,0.62
	c-0.14,0.22-0.45,0.67-0.69,1c-1.54,2.16-1.61,2.3-1.82,3.58c-0.09,0.53-0.26,1.24-0.39,1.57c-0.12,0.33-0.3,1.1-0.39,1.71
	c-0.09,0.61-0.27,1.39-0.38,1.74c-0.31,0.92-0.38,1.23-0.53,2.24c-0.07,0.5-0.27,1.32-0.43,1.83c-0.16,0.5-0.34,1.25-0.39,1.67
	c-0.1,0.73-0.22,1.26-0.6,2.53c-0.1,0.32-0.24,1.02-0.32,1.54c-0.08,0.52-0.26,1.3-0.4,1.72c-0.14,0.42-0.34,1.24-0.43,1.82
	c-0.09,0.58-0.28,1.42-0.43,1.87c-0.47,1.48-0.46,1.95,0.06,2.52c0.57,0.63,0.6,0.63,3.02,0.68c2.36,0.05,2.44,0.06,2.93,0.58
	c0.74,0.78,0.68,1.95-0.13,2.7c-0.61,0.56-0.61,0.56-4.99,0.53l-3.92-0.03l-0.36-0.24c-0.2-0.13-0.47-0.4-0.6-0.6l-0.24-0.36
	l-0.05-12.14c-0.05-13.1-0.04-12.62-0.51-13.97c-0.1-0.29-0.24-0.76-0.32-1.04c-0.07-0.29-0.28-0.78-0.46-1.09
	c-0.18-0.31-0.37-0.66-0.42-0.78c-0.32-0.75-2.66-3.26-3.38-3.63c-0.14-0.07-0.49-0.3-0.76-0.51c-0.27-0.21-0.65-0.42-0.83-0.48
	c-0.18-0.06-0.5-0.22-0.71-0.37c-0.21-0.14-0.6-0.31-0.87-0.38c-0.27-0.07-0.89-0.26-1.38-0.43c-1.55-0.53-2.65-0.52-3.25,0.03
	c-1.31,1.19-0.43,2.51,1.79,2.68c0.57,0.04,0.85,0.12,1.52,0.43c0.45,0.21,0.93,0.4,1.05,0.43c0.12,0.03,0.36,0.15,0.52,0.27
	c0.16,0.12,0.49,0.33,0.73,0.48c1.02,0.61,2.88,2.53,3.2,3.31c0.05,0.12,0.27,0.61,0.49,1.09l0.4,0.87l0.03,1.5
	c0.04,1.88-0.08,2.98-0.41,3.7c-0.13,0.3-0.33,0.81-0.43,1.15c-0.1,0.33-0.29,0.74-0.41,0.91c-0.13,0.17-0.34,0.53-0.48,0.8
	c-0.65,1.26-2.42,2.73-3.34,2.77c-0.65,0.03-1.55,0.66-1.88,1.33c-0.1,0.2-0.32,0.55-0.48,0.78c-0.16,0.23-0.29,0.45-0.29,0.49
	c0,0.04-0.18,0.35-0.41,0.67c-0.22,0.33-0.48,0.77-0.58,0.98c-0.09,0.22-0.28,0.53-0.41,0.7c-0.13,0.17-0.34,0.51-0.47,0.76
	c-0.13,0.25-0.34,0.64-0.49,0.86c-0.48,0.76-0.44,1.37,0.15,1.92c0.36,0.34,2.09,1.5,2.5,1.67c0.14,0.06,0.39,0.22,0.57,0.36
	c0.17,0.13,0.54,0.37,0.83,0.52c0.48,0.25,0.81,0.46,1.71,1.08c0.46,0.31,0.78,0.84,0.83,1.36c0.17,1.78-1.73,2.81-3.26,1.78
	c-0.27-0.18-0.64-0.4-0.8-0.48c-0.17-0.08-0.57-0.32-0.9-0.55c-0.33-0.22-0.63-0.4-0.68-0.4c-0.05,0-0.27-0.13-0.49-0.29
	c-0.22-0.16-0.58-0.38-0.79-0.49c-0.21-0.11-0.58-0.33-0.83-0.5c-0.24-0.17-0.57-0.36-0.73-0.42c-0.16-0.07-0.43-0.23-0.61-0.37
	c-0.18-0.14-0.53-0.36-0.8-0.49c-0.26-0.13-0.56-0.31-0.65-0.39c-0.1-0.08-0.41-0.29-0.71-0.47c-1.21-0.72-1.4-1.69-0.79-3.97
	c0.17-0.65,0.34-1.45,0.37-1.78c0.1-1.06,0.29-2.16,0.56-3.21c0.46-1.8,0.21-2.63-0.98-3.24c-0.15-0.08-0.44-0.27-0.63-0.42
	c-0.53-0.41-1.3-0.93-1.81-1.22c-0.25-0.14-0.63-0.39-0.85-0.55c-1-0.73-1.49-1.07-1.84-1.24c-0.21-0.11-0.53-0.32-0.72-0.47
	c-0.19-0.15-0.48-0.35-0.65-0.44s-0.46-0.28-0.65-0.43c-0.19-0.15-0.48-0.35-0.65-0.43c-0.16-0.08-0.48-0.29-0.71-0.47
	c-0.38-0.3-0.89-0.61-1.63-1c-0.24-0.13-0.59-0.18-1.62-0.24c-1.62-0.09-1.84-0.12-2.66-0.43c-0.36-0.14-0.93-0.31-1.26-0.38
	c-0.33-0.08-0.84-0.27-1.13-0.42c-0.29-0.16-0.76-0.37-1.04-0.48c-0.29-0.11-0.72-0.32-0.96-0.48c-0.24-0.16-0.58-0.37-0.75-0.47
	c-1.19-0.67-3.57-3.07-4.3-4.33c-0.14-0.24-0.36-0.59-0.49-0.79c-0.13-0.2-0.34-0.61-0.45-0.91c-0.12-0.31-0.33-0.79-0.47-1.08
	c-0.14-0.29-0.31-0.76-0.36-1.04c-0.06-0.29-0.23-0.93-0.39-1.44c-0.45-1.42-0.68-5.27-0.36-6.03c0.67-1.59,2.92-1.59,3.59,0
	c0.06,0.15,0.16,0.93,0.21,1.72c0.07,1.12,0.16,1.7,0.39,2.64c0.16,0.66,0.34,1.43,0.4,1.72c0.06,0.29,0.24,0.79,0.41,1.12
	c0.17,0.33,0.36,0.74,0.42,0.92c0.5,1.42,2.97,4.01,4.45,4.67c0.26,0.11,0.62,0.31,0.8,0.43c0.19,0.12,0.7,0.32,1.15,0.43
	c0.45,0.12,1.13,0.31,1.51,0.42c2.94,0.89,3.81,0.38,4.03-2.38c0.06-0.7,0.17-1.35,0.31-1.83c0.12-0.41,0.33-1.21,0.45-1.78
	c0.12-0.57,0.35-1.38,0.51-1.78c0.16-0.41,0.35-0.99,0.43-1.3c0.08-0.31,0.27-0.82,0.43-1.13c0.16-0.32,0.35-0.78,0.43-1.03
	c0.08-0.25,0.25-0.6,0.38-0.78c0.12-0.18,0.33-0.57,0.45-0.85c0.12-0.29,0.34-0.72,0.49-0.96c1.18-1.9,1.53-2.39,3.04-4.22
	c0.46-0.55,2.13-2.02,2.74-2.41c0.27-0.17,0.58-0.4,0.7-0.51c0.12-0.11,0.41-0.29,0.65-0.4c0.24-0.11,0.56-0.28,0.71-0.4
	c0.15-0.11,0.52-0.3,0.81-0.43c0.3-0.12,0.75-0.34,1-0.48c0.26-0.14,0.81-0.33,1.26-0.43c0.44-0.1,0.91-0.23,1.04-0.3
	c0.47-0.24,1.22-0.4,2.58-0.53c0.77-0.07,1.76-0.21,2.22-0.31c1.09-0.23,2.9-0.57,3.39-0.65c0.22-0.03,0.7-0.18,1.07-0.32
	c0.38-0.14,1.05-0.35,1.5-0.46c0.45-0.11,1.03-0.32,1.27-0.46c0.25-0.14,0.69-0.32,0.98-0.4c0.29-0.08,0.75-0.28,1.02-0.45
	c0.27-0.17,0.72-0.38,0.99-0.47c0.27-0.09,0.62-0.27,0.78-0.39c0.16-0.12,0.53-0.34,0.83-0.48c0.3-0.14,0.73-0.39,0.95-0.54
	s0.59-0.39,0.83-0.52c0.23-0.13,0.72-0.45,1.08-0.71c0.36-0.26,0.8-0.57,0.97-0.69c0.47-0.32,1.28-0.98,1.73-1.4
	C70.56,14.53,71.26,14.36,71.69,14.76 M56.28,61.28c0.26,0.35,0.28,10.23,0.03,10.74c-0.34,0.69-0.81,0.52-1.11-0.4
	c-0.19-0.59-0.87-1.36-1.53-1.73c-0.27-0.15-0.57-0.35-0.67-0.43c-0.1-0.09-0.39-0.26-0.65-0.4c-0.26-0.13-0.6-0.33-0.76-0.45
	c-0.15-0.12-0.53-0.34-0.83-0.49c-0.98-0.49-1.1-1.21-0.37-2.27c0.21-0.31,0.48-0.75,0.6-0.98c0.73-1.39,1.35-2,2.32-2.29
	c0.33-0.1,0.61-0.21,0.64-0.25c0.02-0.04,0.32-0.26,0.66-0.49c0.34-0.23,0.61-0.45,0.61-0.49C55.22,61.02,56.05,60.96,56.28,61.28
	 M22.69,63.66c-0.91,0.27-1.13,0.41-2.14,1.3c-0.44,0.39-1.38,1.88-1.47,2.32c-0.37,2-0.88,2.71-2.48,3.44
	c-1.42,0.65-2.64,2.12-3.35,4.05c-0.49,1.32-0.38,3.02,0.23,3.68c0.19,0.2,0.34,0.42,0.34,0.47c0,0.25,0.64,0.27,8.96,0.27
	c8.41,0,8.96-0.02,8.96-0.28c0-0.06,0.16-0.27,0.36-0.46c0.49-0.47,1.17-1.89,1.31-2.72c0.4-2.45-1.48-5.91-3.66-6.72
	c-0.26-0.1-0.75-0.29-1.09-0.43c-0.33-0.14-0.83-0.3-1.09-0.35c-0.89-0.17-1.62-0.94-1.98-2.09C24.79,63.64,24.26,63.19,22.69,63.66
	 M23.01,67.67c0.1,0.07,0.28,0.38,0.39,0.67c0.5,1.38,2.12,2.6,3.84,2.9c1.26,0.22,2.71,1.4,3.03,2.47
	c0.17,0.57,0.07,1.79-0.16,2.02c-0.35,0.35-12.95,0.44-13.6,0.1c-0.49-0.25-0.39-0.88,0.27-1.63c0.86-0.97,1.51-1.17,2.2-0.68
	c0.75,0.54,3.25,1.22,4.04,1.1c0.87-0.13,1.52-1.17,1.17-1.89c-0.38-0.78-0.91-1.1-1.87-1.11c-0.81-0.01-1.1-0.48-0.93-1.54
	C21.66,68.3,22.39,67.23,23.01,67.67"/>
</svg>
